<svg width="673" height="109" fill="none" xmlns="http://www.w3.org/2000/svg"><path d="M117 30.7H69c-5.7 0-10.4 4.7-10.4 10.5v2.7c0 5.8 4.7 10.4 10.5 10.4h48c5.7 0 10.4-4.6 10.4-10.4v-2.7c0-5.8-4.7-10.5-10.4-10.5zm-25.9 28H67.7a9 9 0 00-9.1 9V70c0 5 4 9.1 9 9.1h23.5c5 0 9-4 9-9v-2.4c0-5-4-9-9-9zm-1.4 24.7h-48c-5.8 0-10.4 4.7-10.4 10.5v2.6c0 5.8 4.6 10.5 10.4 10.5h48c5.8 0 10.5-4.7 10.5-10.5V94c0-5.8-4.7-10.5-10.5-10.5zm-76.2 0h-3C4.7 83.4 0 88.1 0 94v2.6c0 5.8 4.7 10.5 10.5 10.5h3c5.8 0 10.4-4.7 10.4-10.5V94c0-5.8-4.6-10.5-10.4-10.5zm138.5 4c2.5 14.8 17 21 33.8 21 19 0 32.7-8.3 32.7-24.3 0-10.6-6.3-18.7-19.9-21.6l-17-3.4c-4.5-1-5.4-3-5.4-5 0-2.6 2-5.7 8.2-5.7 7 0 11.3 4 12 8.5l21-4.1C214.5 40.3 202.6 32 184.7 32c-18.2 0-31 9.6-31 24.4 0 11.3 7.6 18.5 21 20.9l14.6 2.9c5.3 1 7.1 2.8 7.1 5.3 0 3.1-3.2 5.7-9.3 5.7-6.1 0-11.7-2.3-12.7-8.4L152 87.4zm107 .9c-10.3 0-17.2-7.5-17.2-18s6.9-18.1 17.2-18.1c7.3 0 13.2 4 15.2 12.7l21.5-5.1c-4-17-19.2-27.7-36.7-27.7-21.5 0-39.3 15.5-39.3 38.1 0 22.8 17.8 38.2 39.3 38.2 17.9 0 33-11 36.7-28.1l-21.1-4.6c-2.4 8.7-8.3 12.6-15.6 12.6zm87.7-55A27.8 27.8 0 00321.9 48V34.3h-23v72h23V83.6c0-18.6 8.7-27 24.8-27h4.1l1-22.9c-1.7-.4-3.1-.5-5.1-.5zM368.3 0a13 13 0 00-13.2 13c0 7.4 5.5 12.8 13.2 12.8 7.8 0 13.3-5.4 13.3-12.8 0-7-5.5-13-13.3-13zm11.5 106.2v-72h-23v72h23zm98.3-74a31 31 0 00-25.5 12 26.7 26.7 0 00-23.5-12 27 27 0 00-21.2 8.7v-6.6h-23v72h23V71c0-12 5.4-18.2 13.7-18.2 6.9 0 12.2 5.1 12.2 13.3v40.1h23V71c0-12 5.5-18.2 14-18.2 6.7 0 12 5.1 12 13.3v40.1h22.8v-45c0-17.5-12.2-29-27.5-29zm76 0c-9.2 0-16.7 2.8-22.3 7.8V3h-23v103.2h23v-5.7c5.6 5 13 7.9 22.4 7.9 19 0 35.1-15.4 35.1-38.2 0-22.6-16-38-35.1-38zm-4.6 56.7a18 18 0 01-17.7-18.7 18 18 0 0117.7-18.6c10 0 17.3 7.6 17.3 18.6 0 11.2-7.3 18.7-17.3 18.7zM673 34.3h-23V40c-5.5-5-13-7.9-22.3-7.9-19 0-35.1 15.5-35.1 38.1 0 22.8 16 38.2 35.1 38.2 9.3 0 16.8-2.9 22.4-8v5.8H673v-72zm-40.6 54.6c-10 0-17.3-7.5-17.3-18.7 0-11 7.3-18.6 17.3-18.6a18 18 0 0117.7 18.6 18 18 0 01-17.7 18.7z" fill="#2B283A"/></svg>